{"accessors" : [{"bufferView" : 0, "byteOffset" : 0, "componentType" : 5123, "count" : 1290, "type" : "SCALAR", "max" : [1027], "min" : [0]}, {"bufferView" : 1, "byteOffset" : 0, "componentType" : 5126, "count" : 1028, "type" : "VEC3", "max" : [-1.5445075035095215, -1.2616477012634277, 0.1953728348016739], "min" : [-2.2562026977539062, -1.6940629482269287, -1.644468903541565], "name" : "POSITION"}, {"bufferView" : 0, "byteOffset" : 2580, "componentType" : 5123, "count" : 2088, "type" : "SCALAR", "max" : [1692], "min" : [0]}, {"bufferView" : 2, "byteOffset" : 0, "componentType" : 5126, "count" : 1693, "type" : "VEC3", "max" : [1.4250922203063965, -0.6567565202713013, -0.04364294558763504], "min" : [0.8125079870223999, -1.6940630674362183, -0.6261113286018372], "name" : "POSITION"}, {"bufferView" : 0, "byteOffset" : 6756, "componentType" : 5123, "count" : 2088, "type" : "SCALAR", "max" : [1692], "min" : [0]}, {"bufferView" : 3, "byteOffset" : 0, "componentType" : 5126, "count" : 1693, "type" : "VEC3", "max" : [-0.4188601076602936, -0.8122876882553101, 2.181810140609741], "min" : [-0.9594331979751587, -1.6940628290176392, 1.7082581520080566], "name" : "POSITION"}, {"bufferView" : 0, "byteOffset" : 10932, "componentType" : 5123, "count" : 2088, "type" : "SCALAR", "max" : [1692], "min" : [0]}, {"bufferView" : 4, "byteOffset" : 0, "componentType" : 5126, "count" : 1693, "type" : "VEC3", "max" : [1.3187872171401978, -0.658710777759552, 1.982855200767517], "min" : [0.7334319949150085, -1.6940629482269287, 1.4955854415893555], "name" : "POSITION"}, {"bufferView" : 0, "byteOffset" : 15108, "componentType" : 5123, "count" : 2088, "type" : "SCALAR", "max" : [1692], "min" : [0]}, {"bufferView" : 5, "byteOffset" : 0, "componentType" : 5126, "count" : 1693, "type" : "VEC3", "max" : [-0.19400733709335327, -0.8541680574417114, -0.006874970160424709], "min" : [-0.6806653738021851, -1.6940630674362183, -0.4360131621360779], "name" : "POSITION"}, {"bufferView" : 0, "byteOffset" : 19284, "componentType" : 5123, "count" : 2088, "type" : "SCALAR", "max" : [1692], "min" : [0]}, {"bufferView" : 6, "byteOffset" : 0, "componentType" : 5126, "count" : 1693, "type" : "VEC3", "max" : [0.009863831102848053, -0.8340537548065186, -1.00929856300354], "min" : [-0.5787011384963989, -1.6940629482269287, -1.6404880285263062], "name" : "POSITION"}, {"bufferView" : 0, "byteOffset" : 23460, "componentType" : 5123, "count" : 1290, "type" : "SCALAR", "max" : [1027], "min" : [0]}, {"bufferView" : 7, "byteOffset" : 0, "componentType" : 5126, "count" : 1028, "type" : "VEC3", "max" : [0.8213603496551514, -0.7794163823127747, 2.466411590576172], "min" : [-0.5235728025436401, -1.6940629482269287, -0.8475669622421265], "name" : "POSITION"}, {"bufferView" : 0, "byteOffset" : 26040, "componentType" : 5123, "count" : 996, "type" : "SCALAR", "max" : [873], "min" : [0]}, {"bufferView" : 8, "byteOffset" : 0, "componentType" : 5126, "count" : 874, "type" : "VEC3", "max" : [0.14457955956459045, -0.17726171016693115, -2.300686836242676], "min" : [-0.859032154083252, -1.6940628290176392, -2.71724009513855], "name" : "POSITION"}, {"bufferView" : 0, "byteOffset" : 28032, "componentType" : 5123, "count" : 996, "type" : "SCALAR", "max" : [873], "min" : [0]}, {"bufferView" : 9, "byteOffset" : 0, "componentType" : 5126, "count" : 874, "type" : "VEC3", "max" : [1.0724387168884277, -0.17373067140579224, -3.3906843662261963], "min" : [-0.6964288353919983, -1.6940629482269287, -3.78436541557312], "name" : "POSITION"}, {"bufferView" : 0, "byteOffset" : 30024, "componentType" : 5123, "count" : 996, "type" : "SCALAR", "max" : [873], "min" : [0]}, {"bufferView" : 10, "byteOffset" : 0, "componentType" : 5126, "count" : 874, "type" : "VEC3", "max" : [-1.724473476409912, -0.8623850345611572, 2.074924945831299], "min" : [-2.2699036598205566, -1.6940629482269287, 0.6663885712623596], "name" : "POSITION"}, {"bufferView" : 0, "byteOffset" : 32016, "componentType" : 5123, "count" : 6, "type" : "SCALAR", "max" : [4], "min" : [0]}, {"bufferView" : 11, "byteOffset" : 0, "componentType" : 5126, "count" : 5, "type" : "VEC3", "max" : [2.37648344039917, 0.7269246578216553, -2.7829596996307373], "min" : [2.3764824867248535, -1.6940629482269287, -3.795248031616211], "name" : "POSITION"}, {"bufferView" : 0, "byteOffset" : 32028, "componentType" : 5123, "count" : 24, "type" : "SCALAR", "max" : [20], "min" : [0]}, {"bufferView" : 12, "byteOffset" : 0, "componentType" : 5126, "count" : 21, "type" : "VEC3", "max" : [2.293952465057373, 1.3811514377593994, 3.8447487354278564], "min" : [2.193897008895874, -1.6940629482269287, -0.42641332745552063], "name" : "POSITION"}, {"bufferView" : 0, "byteOffset" : 32076, "componentType" : 5123, "count" : 24, "type" : "SCALAR", "max" : [20], "min" : [0]}, {"bufferView" : 13, "byteOffset" : 0, "componentType" : 5126, "count" : 21, "type" : "VEC3", "max" : [2.426480531692505, 1.3811514377593994, -0.42641332745552063], "min" : [2.1938955783843994, -1.6940629482269287, -0.5264133214950562], "name" : "POSITION"}, {"bufferView" : 0, "byteOffset" : 32124, "componentType" : 5123, "count" : 72, "type" : "SCALAR", "max" : [62], "min" : [0]}, {"bufferView" : 14, "byteOffset" : 0, "componentType" : 5126, "count" : 63, "type" : "VEC3", "max" : [2.426483392715454, 1.3811514377593994, -0.5264133214950562], "min" : [2.3264806270599365, -1.6940629482269287, -3.8452467918395996], "name" : "POSITION"}, {"bufferView" : 0, "byteOffset" : 32268, "componentType" : 5123, "count" : 24, "type" : "SCALAR", "max" : [20], "min" : [0]}, {"bufferView" : 15, "byteOffset" : 0, "componentType" : 5126, "count" : 21, "type" : "VEC3", "max" : [-2.3414371013641357, 0.7104315757751465, 3.0847480297088623], "min" : [-2.441437005996704, -1.6940629482269287, -3.84525203704834], "name" : "POSITION"}, {"bufferView" : 0, "byteOffset" : 32316, "componentType" : 5123, "count" : 24, "type" : "SCALAR", "max" : [20], "min" : [0]}, {"bufferView" : 16, "byteOffset" : 0, "componentType" : 5126, "count" : 21, "type" : "VEC3", "max" : [2.426483392715454, 1.3219964504241943, -3.7452468872070312], "min" : [-2.441437005996704, -1.6940629482269287, -3.84525203704834], "name" : "POSITION"}, {"bufferView" : 0, "byteOffset" : 32364, "componentType" : 5123, "count" : 30, "type" : "SCALAR", "max" : [24], "min" : [0]}, {"bufferView" : 17, "byteOffset" : 0, "componentType" : 5126, "count" : 25, "type" : "VEC3", "max" : [2.426483392715454, 1.3811514377593994, 3.8447487354278564], "min" : [-2.441437005996704, 0.7104315757751465, -3.84525203704834], "name" : "POSITION"}, {"bufferView" : 0, "byteOffset" : 32424, "componentType" : 5123, "count" : 36, "type" : "SCALAR", "max" : [30], "min" : [0]}, {"bufferView" : 18, "byteOffset" : 0, "componentType" : 5126, "count" : 31, "type" : "VEC3", "max" : [2.926483392715454, -1.6940629482269287, 4.344748497009277], "min" : [-2.941437005996704, -1.794062852859497, -4.34525203704834], "name" : "POSITION"}], "asset" : {"generator" : "Aspose.3D 22.10", "version" : "2.0"}, "buffers" : [{"uri" : "data:application/octet-stream;base64,", "byteLength" : 227548}], "bufferViews" : [{"buffer" : 0, "byteOffset" : 0, "byteLength" : 32496, "target" : 34963}, {"buffer" : 0, "byteOffset" : 32500, "byteLength" : 15480, "byteStride" : 12, "target" : 34962}, {"buffer" : 0, "byteOffset" : 47984, "byteLength" : 25056, "byteStride" : 12, "target" : 34962}, {"buffer" : 0, "byteOffset" : 73044, "byteLength" : 25056, "byteStride" : 12, "target" : 34962}, {"buffer" : 0, "byteOffset" : 98104, "byteLength" : 25056, "byteStride" : 12, "target" : 34962}, {"buffer" : 0, "byteOffset" : 123164, "byteLength" : 25056, "byteStride" : 12, "target" : 34962}, {"buffer" : 0, "byteOffset" : 148224, "byteLength" : 25056, "byteStride" : 12, "target" : 34962}, {"buffer" : 0, "byteOffset" : 173284, "byteLength" : 15480, "byteStride" : 12, "target" : 34962}, {"buffer" : 0, "byteOffset" : 188768, "byteLength" : 11952, "byteStride" : 12, "target" : 34962}, {"buffer" : 0, "byteOffset" : 200724, "byteLength" : 11952, "byteStride" : 12, "target" : 34962}, {"buffer" : 0, "byteOffset" : 212680, "byteLength" : 11952, "byteStride" : 12, "target" : 34962}, {"buffer" : 0, "byteOffset" : 224636, "byteLength" : 72, "byteStride" : 12, "target" : 34962}, {"buffer" : 0, "byteOffset" : 224712, "byteLength" : 288, "byteStride" : 12, "target" : 34962}, {"buffer" : 0, "byteOffset" : 225004, "byteLength" : 288, "byteStride" : 12, "target" : 34962}, {"buffer" : 0, "byteOffset" : 225296, "byteLength" : 864, "byteStride" : 12, "target" : 34962}, {"buffer" : 0, "byteOffset" : 226164, "byteLength" : 288, "byteStride" : 12, "target" : 34962}, {"buffer" : 0, "byteOffset" : 226456, "byteLength" : 288, "byteStride" : 12, "target" : 34962}, {"buffer" : 0, "byteOffset" : 226748, "byteLength" : 360, "byteStride" : 12, "target" : 34962}, {"buffer" : 0, "byteOffset" : 227112, "byteLength" : 432, "byteStride" : 12, "target" : 34962}], "materials" : [{"pbrMetallicRoughness" : {"baseColorFactor" : [0.75, 0.7570000290870667, 0.9049999713897705, 1], "metallicFactor" : 0, "roughnessFactor" : 1}, "emissiveFactor" : [0, 0, 0], "alphaMode" : "OPAQUE", "doubleSided" : true}, {"pbrMetallicRoughness" : {"baseColorFactor" : [0.75, 0.7570000290870667, 0.9049999713897705, 1], "metallicFactor" : 0, "roughnessFactor" : 1}, "emissiveFactor" : [0, 0, 0], "alphaMode" : "OPAQUE", "doubleSided" : true}, {"pbrMetallicRoughness" : {"baseColorFactor" : [0.75, 0.7570000290870667, 0.9049999713897705, 1], "metallicFactor" : 0, "roughnessFactor" : 1}, "emissiveFactor" : [0, 0, 0], "alphaMode" : "OPAQUE", "doubleSided" : true}, {"pbrMetallicRoughness" : {"baseColorFactor" : [0.75, 0.7570000290870667, 0.9049999713897705, 1], "metallicFactor" : 0, "roughnessFactor" : 1}, "emissiveFactor" : [0, 0, 0], "alphaMode" : "OPAQUE", "doubleSided" : true}, {"pbrMetallicRoughness" : {"baseColorFactor" : [0.75, 0.7570000290870667, 0.9049999713897705, 1], "metallicFactor" : 0, "roughnessFactor" : 1}, "emissiveFactor" : [0, 0, 0], "alphaMode" : "OPAQUE", "doubleSided" : true}, {"pbrMetallicRoughness" : {"baseColorFactor" : [0.75, 0.7570000290870667, 0.9049999713897705, 1], "metallicFactor" : 0, "roughnessFactor" : 1}, "emissiveFactor" : [0, 0, 0], "alphaMode" : "OPAQUE", "doubleSided" : true}, {"pbrMetallicRoughness" : {"baseColorFactor" : [0.75, 0.7570000290870667, 0.9049999713897705, 1], "metallicFactor" : 0, "roughnessFactor" : 1}, "emissiveFactor" : [0, 0, 0], "alphaMode" : "OPAQUE", "doubleSided" : true}, {"pbrMetallicRoughness" : {"baseColorFactor" : [0.75, 0.7570000290870667, 0.9049999713897705, 1], "metallicFactor" : 0, "roughnessFactor" : 1}, "emissiveFactor" : [0, 0, 0], "alphaMode" : "OPAQUE", "doubleSided" : true}, {"pbrMetallicRoughness" : {"baseColorFactor" : [0.75, 0.7570000290870667, 0.9049999713897705, 1], "metallicFactor" : 0, "roughnessFactor" : 1}, "emissiveFactor" : [0, 0, 0], "alphaMode" : "OPAQUE", "doubleSided" : true}, {"pbrMetallicRoughness" : {"baseColorFactor" : [0.75, 0.7570000290870667, 0.9049999713897705, 1], "metallicFactor" : 0, "roughnessFactor" : 1}, "emissiveFactor" : [0, 0, 0], "alphaMode" : "OPAQUE", "doubleSided" : true}, {"pbrMetallicRoughness" : {"baseColorFactor" : [0.6000000238418579, 0.6000000238418579, 0.6000000238418579, 0.4000000059604645], "metallicFactor" : 0, "roughnessFactor" : 1}, "emissiveFactor" : [0, 0, 0], "alphaMode" : "BLEND", "doubleSided" : true}, {"pbrMetallicRoughness" : {"baseColorFactor" : [0.7020000219345093, 0.6660000085830688, 0.6159999966621399, 0.699999988079071], "metallicFactor" : 0, "roughnessFactor" : 1}, "emissiveFactor" : [0, 0, 0], "alphaMode" : "BLEND", "doubleSided" : true}, {"pbrMetallicRoughness" : {"baseColorFactor" : [0.7020000219345093, 0.6660000085830688, 0.6159999966621399, 0.699999988079071], "metallicFactor" : 0, "roughnessFactor" : 1}, "emissiveFactor" : [0, 0, 0], "alphaMode" : "BLEND", "doubleSided" : true}, {"pbrMetallicRoughness" : {"baseColorFactor" : [0.7020000219345093, 0.6660000085830688, 0.6159999966621399, 0.699999988079071], "metallicFactor" : 0, "roughnessFactor" : 1}, "emissiveFactor" : [0, 0, 0], "alphaMode" : "BLEND", "doubleSided" : true}, {"pbrMetallicRoughness" : {"baseColorFactor" : [0.7020000219345093, 0.6660000085830688, 0.6159999966621399, 0.699999988079071], "metallicFactor" : 0, "roughnessFactor" : 1}, "emissiveFactor" : [0, 0, 0], "alphaMode" : "BLEND", "doubleSided" : true}, {"pbrMetallicRoughness" : {"baseColorFactor" : [0.7020000219345093, 0.6660000085830688, 0.6159999966621399, 0.699999988079071], "metallicFactor" : 0, "roughnessFactor" : 1}, "emissiveFactor" : [0, 0, 0], "alphaMode" : "BLEND", "doubleSided" : true}, {"pbrMetallicRoughness" : {"baseColorFactor" : [0.949999988079071, 0.8999999761581421, 0.8500000238418579, 0.699999988079071], "metallicFactor" : 0, "roughnessFactor" : 1}, "emissiveFactor" : [0, 0, 0], "alphaMode" : "BLEND", "doubleSided" : true}, {"pbrMetallicRoughness" : {"baseColorFactor" : [0.8550000190734863, 0.7960000038146973, 0.7289999723434448, 1], "metallicFactor" : 0, "roughnessFactor" : 1}, "emissiveFactor" : [0, 0, 0], "alphaMode" : "OPAQUE", "doubleSided" : true}], "meshes" : [{"primitives" : [{"attributes" : {"POSITION" : 1}, "indices" : 0, "material" : 0, "mode" : 4}]}, {"primitives" : [{"attributes" : {"POSITION" : 3}, "indices" : 2, "material" : 1, "mode" : 4}]}, {"primitives" : [{"attributes" : {"POSITION" : 5}, "indices" : 4, "material" : 2, "mode" : 4}]}, {"primitives" : [{"attributes" : {"POSITION" : 7}, "indices" : 6, "material" : 3, "mode" : 4}]}, {"primitives" : [{"attributes" : {"POSITION" : 9}, "indices" : 8, "material" : 4, "mode" : 4}]}, {"primitives" : [{"attributes" : {"POSITION" : 11}, "indices" : 10, "material" : 5, "mode" : 4}]}, {"primitives" : [{"attributes" : {"POSITION" : 13}, "indices" : 12, "material" : 6, "mode" : 4}]}, {"primitives" : [{"attributes" : {"POSITION" : 15}, "indices" : 14, "material" : 7, "mode" : 4}]}, {"primitives" : [{"attributes" : {"POSITION" : 17}, "indices" : 16, "material" : 8, "mode" : 4}]}, {"primitives" : [{"attributes" : {"POSITION" : 19}, "indices" : 18, "material" : 9, "mode" : 4}]}, {"primitives" : [{"attributes" : {"POSITION" : 21}, "indices" : 20, "material" : 10, "mode" : 4}]}, {"primitives" : [{"attributes" : {"POSITION" : 23}, "indices" : 22, "material" : 11, "mode" : 4}]}, {"primitives" : [{"attributes" : {"POSITION" : 25}, "indices" : 24, "material" : 12, "mode" : 4}]}, {"primitives" : [{"attributes" : {"POSITION" : 27}, "indices" : 26, "material" : 13, "mode" : 4}]}, {"primitives" : [{"attributes" : {"POSITION" : 29}, "indices" : 28, "material" : 14, "mode" : 4}]}, {"primitives" : [{"attributes" : {"POSITION" : 31}, "indices" : 30, "material" : 15, "mode" : 4}]}, {"primitives" : [{"attributes" : {"POSITION" : 33}, "indices" : 32, "material" : 16, "mode" : 4}]}, {"primitives" : [{"attributes" : {"POSITION" : 35}, "indices" : 34, "material" : 17, "mode" : 4}]}], "nodes" : [{"mesh" : 0, "name" : "Node #0"}, {"mesh" : 1, "name" : "Node #1"}, {"mesh" : 2, "name" : "Node #2"}, {"mesh" : 3, "name" : "Node #3"}, {"mesh" : 4, "name" : "Node #4"}, {"mesh" : 5, "name" : "Node #5"}, {"mesh" : 6, "name" : "Node #6"}, {"mesh" : 7, "name" : "Node #7"}, {"mesh" : 8, "name" : "Node #8"}, {"mesh" : 9, "name" : "Node #9"}, {"mesh" : 10, "name" : "Node #10"}, {"mesh" : 11, "name" : "Node #11"}, {"mesh" : 12, "name" : "Node #12"}, {"mesh" : 13, "name" : "Node #13"}, {"mesh" : 14, "name" : "Node #14"}, {"mesh" : 15, "name" : "Node #15"}, {"mesh" : 16, "name" : "Node #16"}, {"mesh" : 17, "name" : "Node #17"}], "scene" : 0, "scenes" : [{"nodes" : [0, 1, 2, 3, 4, 5, 6, 7, 8, 9, 10, 11, 12, 13, 14, 15, 16, 17]}]}